<mxfile host="65bd71144e">
    <diagram id="Rc5hr2WGM002AqjLndv9" name="Page-1">
        <mxGraphModel dx="1958" dy="1143" grid="1" gridSize="10" guides="1" tooltips="1" connect="1" arrows="1" fold="1" page="1" pageScale="1" pageWidth="827" pageHeight="1169" math="0" shadow="0">
            <root>
                <mxCell id="0"/>
                <object label="Base" id="1">
                    <mxCell style="" parent="0"/>
                </object>
                <mxCell id="4" value="" style="rounded=1;arcSize=3;dashed=0;fillColor=none;gradientColor=none;strokeWidth=2;strokeColor=#FF9933;" parent="1" vertex="1">
                    <mxGeometry x="280" y="150" width="1100" height="880" as="geometry"/>
                </mxCell>
                <mxCell id="5" value="" style="dashed=0;html=1;shape=mxgraph.aws3.cloud;fillColor=#F58536;gradientColor=none;dashed=0;" parent="1" vertex="1">
                    <mxGeometry x="300" y="130" width="52" height="36" as="geometry"/>
                </mxCell>
                <mxCell id="8" value="" style="outlineConnect=0;dashed=0;verticalLabelPosition=bottom;verticalAlign=top;align=center;html=1;shape=mxgraph.aws3.internet_3;fillColor=#D2D3D3;gradientColor=none;" parent="1" vertex="1">
                    <mxGeometry x="150" y="520" width="79.5" height="54" as="geometry"/>
                </mxCell>
                <mxCell id="41" value="" style="rounded=1;arcSize=10;strokeColor=#F59D56;fillColor=none;gradientColor=none;strokeWidth=2;" parent="1" vertex="1">
                    <mxGeometry x="1230" y="250" width="110" height="650" as="geometry"/>
                </mxCell>
                <mxCell id="173" value="AWS&lt;br&gt;Services" style="text;html=1;strokeColor=none;fillColor=none;align=center;verticalAlign=middle;whiteSpace=wrap;rounded=0;dashed=1;dashPattern=1 2;fontSize=12;fontColor=#000000;" parent="1" vertex="1">
                    <mxGeometry x="1255" y="260" width="60" height="30" as="geometry"/>
                </mxCell>
                <mxCell id="174" value="Internet" style="text;html=1;strokeColor=none;fillColor=none;align=center;verticalAlign=middle;whiteSpace=wrap;rounded=0;dashed=1;dashPattern=1 2;fontSize=12;fontColor=#000000;" parent="1" vertex="1">
                    <mxGeometry x="210" y="500" width="60" height="30" as="geometry"/>
                </mxCell>
                <object label="VPC" id="9">
                    <mxCell style="" parent="0"/>
                </object>
                <mxCell id="14" value="" style="rounded=1;arcSize=4;dashed=0;fillColor=none;gradientColor=none;strokeWidth=2;strokeColor=#FF9933;" parent="9" vertex="1">
                    <mxGeometry x="314" y="250" width="866" height="750" as="geometry"/>
                </mxCell>
                <mxCell id="15" value="" style="dashed=0;html=1;shape=mxgraph.aws3.virtual_private_cloud;fillColor=#F58536;gradientColor=none;dashed=0;" parent="9" vertex="1">
                    <mxGeometry x="334" y="230" width="52" height="36" as="geometry"/>
                </mxCell>
                <mxCell id="86" value="AZ" style="" parent="0"/>
                <mxCell id="156" value="" style="rounded=1;arcSize=10;dashed=1;strokeColor=#006600;fillColor=none;gradientColor=none;dashPattern=8 4;strokeWidth=2;" parent="86" vertex="1">
                    <mxGeometry x="350" y="290" width="270" height="580" as="geometry"/>
                </mxCell>
                <mxCell id="157" value="" style="rounded=1;arcSize=10;dashed=1;strokeColor=#006600;fillColor=none;gradientColor=none;dashPattern=8 4;strokeWidth=2;" parent="86" vertex="1">
                    <mxGeometry x="630" y="290" width="260" height="580" as="geometry"/>
                </mxCell>
                <mxCell id="158" value="" style="rounded=1;arcSize=10;dashed=1;strokeColor=#006600;fillColor=none;gradientColor=none;dashPattern=8 4;strokeWidth=2;" parent="86" vertex="1">
                    <mxGeometry x="900" y="290" width="260" height="580" as="geometry"/>
                </mxCell>
                <mxCell id="159" value="Availability Zone 1" style="text;html=1;strokeColor=none;fillColor=none;align=center;verticalAlign=middle;whiteSpace=wrap;rounded=0;dashed=1;dashPattern=1 2;fontColor=#006600;" parent="86" vertex="1">
                    <mxGeometry x="420" y="260" width="115" height="30" as="geometry"/>
                </mxCell>
                <mxCell id="160" value="Availability Zone 2" style="text;html=1;strokeColor=none;fillColor=none;align=center;verticalAlign=middle;whiteSpace=wrap;rounded=0;dashed=1;dashPattern=1 2;fontColor=#006600;" parent="86" vertex="1">
                    <mxGeometry x="702.5" y="260" width="115" height="30" as="geometry"/>
                </mxCell>
                <mxCell id="161" value="Availability Zone 3" style="text;html=1;strokeColor=none;fillColor=none;align=center;verticalAlign=middle;whiteSpace=wrap;rounded=0;dashed=1;dashPattern=1 2;fontColor=#006600;" parent="86" vertex="1">
                    <mxGeometry x="972.5" y="260" width="115" height="30" as="geometry"/>
                </mxCell>
                <object label="Networking" id="16">
                    <mxCell style="" parent="0"/>
                </object>
                <mxCell id="172" value="" style="endArrow=none;html=1;rounded=0;fontSize=12;fontColor=#006600;strokeWidth=2;entryX=0.5;entryY=1;entryDx=0;entryDy=0;entryPerimeter=0;" parent="16" source="109" target="181" edge="1">
                    <mxGeometry width="50" height="50" relative="1" as="geometry">
                        <mxPoint x="170" y="460" as="sourcePoint"/>
                        <mxPoint x="354" y="313.5" as="targetPoint"/>
                        <Array as="points"/>
                    </mxGeometry>
                </mxCell>
                <mxCell id="171" value="" style="endArrow=none;html=1;rounded=0;fontSize=12;fontColor=#006600;strokeWidth=2;entryX=0.5;entryY=1;entryDx=0;entryDy=0;entryPerimeter=0;" parent="16" source="108" target="180" edge="1">
                    <mxGeometry width="50" height="50" relative="1" as="geometry">
                        <mxPoint x="100" y="250" as="sourcePoint"/>
                        <mxPoint x="354" y="313.5" as="targetPoint"/>
                        <Array as="points"/>
                    </mxGeometry>
                </mxCell>
                <mxCell id="104" value="" style="rounded=1;arcSize=10;dashed=0;fillColor=none;gradientColor=none;strokeWidth=2;strokeColor=#FF9933;" parent="16" vertex="1">
                    <mxGeometry x="649" y="730" width="230" height="100" as="geometry"/>
                </mxCell>
                <mxCell id="105" value="" style="rounded=1;arcSize=10;dashed=0;fillColor=none;gradientColor=none;strokeWidth=2;strokeColor=#FF9933;" parent="16" vertex="1">
                    <mxGeometry x="916" y="730" width="230" height="100" as="geometry"/>
                </mxCell>
                <mxCell id="92" value="" style="rounded=1;arcSize=10;dashed=0;fillColor=none;gradientColor=none;strokeWidth=2;strokeColor=#FF9933;" parent="16" vertex="1">
                    <mxGeometry x="916" y="340" width="230" height="200" as="geometry"/>
                </mxCell>
                <mxCell id="89" value="" style="rounded=1;arcSize=10;dashed=0;fillColor=none;gradientColor=none;strokeWidth=2;strokeColor=#FF9933;" parent="16" vertex="1">
                    <mxGeometry x="649" y="340" width="230" height="200" as="geometry"/>
                </mxCell>
                <mxCell id="17" value="" style="rounded=1;arcSize=10;dashed=0;fillColor=none;gradientColor=none;strokeWidth=2;strokeColor=#FF9933;" parent="16" vertex="1">
                    <mxGeometry x="360" y="340" width="250" height="200" as="geometry"/>
                </mxCell>
                <mxCell id="18" value="" style="dashed=0;html=1;shape=mxgraph.aws3.permissions;fillColor=#D9A741;gradientColor=none;dashed=0;" parent="16" vertex="1">
                    <mxGeometry x="400" y="320" width="30" height="35" as="geometry"/>
                </mxCell>
                <mxCell id="19" value="" style="rounded=1;arcSize=10;dashed=0;fillColor=none;gradientColor=none;strokeWidth=2;strokeColor=#FF9933;" parent="16" vertex="1">
                    <mxGeometry x="360" y="730" width="250" height="100" as="geometry"/>
                </mxCell>
                <mxCell id="20" value="" style="dashed=0;html=1;shape=mxgraph.aws3.permissions;fillColor=#D9A741;gradientColor=none;dashed=0;" parent="16" vertex="1">
                    <mxGeometry x="375" y="712" width="30" height="35" as="geometry"/>
                </mxCell>
                <mxCell id="21" value="Private Subnet 1" style="text;html=1;strokeColor=none;fillColor=none;align=center;verticalAlign=middle;whiteSpace=wrap;rounded=0;" parent="16" vertex="1">
                    <mxGeometry x="460" y="310" width="100" height="30" as="geometry"/>
                </mxCell>
                <mxCell id="22" value="Public Subnet 1" style="text;html=1;strokeColor=none;fillColor=none;align=center;verticalAlign=middle;whiteSpace=wrap;rounded=0;" parent="16" vertex="1">
                    <mxGeometry x="440" y="795" width="100" height="30" as="geometry"/>
                </mxCell>
                <mxCell id="24" value="" style="outlineConnect=0;dashed=0;verticalLabelPosition=bottom;verticalAlign=top;align=center;html=1;shape=mxgraph.aws3.internet_gateway;fillColor=#F58534;gradientColor=none;" parent="16" vertex="1">
                    <mxGeometry x="283" y="810" width="69" height="72" as="geometry"/>
                </mxCell>
                <mxCell id="25" value="NAT Gateway" style="text;html=1;strokeColor=none;fillColor=none;align=center;verticalAlign=middle;whiteSpace=wrap;rounded=0;" parent="16" vertex="1">
                    <mxGeometry x="450" y="900" width="60" height="30" as="geometry"/>
                </mxCell>
                <mxCell id="27" value="" style="line;strokeWidth=4;html=1;perimeter=backbonePerimeter;points=[];outlineConnect=0;" parent="16" vertex="1">
                    <mxGeometry x="380" y="430" width="220" height="10" as="geometry"/>
                </mxCell>
                <mxCell id="28" value="" style="line;strokeWidth=4;html=1;perimeter=backbonePerimeter;points=[];outlineConnect=0;" parent="16" vertex="1">
                    <mxGeometry x="380" y="790" width="220" height="10" as="geometry"/>
                </mxCell>
                <mxCell id="29" value="" style="endArrow=none;html=1;entryX=0.5;entryY=1;entryDx=0;entryDy=0;entryPerimeter=0;exitX=0.5;exitY=1;exitDx=0;exitDy=0;exitPerimeter=0;rounded=0;startArrow=classic;startFill=1;strokeWidth=2;" parent="16" source="8" target="179" edge="1">
                    <mxGeometry width="50" height="50" relative="1" as="geometry">
                        <mxPoint x="60" y="460" as="sourcePoint"/>
                        <mxPoint x="285" y="313.5" as="targetPoint"/>
                        <Array as="points">
                            <mxPoint x="190" y="980"/>
                            <mxPoint x="545" y="980"/>
                        </Array>
                    </mxGeometry>
                </mxCell>
                <mxCell id="32" value="" style="outlineConnect=0;dashed=0;verticalLabelPosition=bottom;verticalAlign=top;align=center;html=1;shape=mxgraph.aws3.endpoints;fillColor=#F58536;gradientColor=none;" parent="16" vertex="1">
                    <mxGeometry x="1150" y="541.5" width="69" height="72" as="geometry"/>
                </mxCell>
                <mxCell id="34" value="" style="outlineConnect=0;dashed=0;verticalLabelPosition=bottom;verticalAlign=top;align=center;html=1;shape=mxgraph.aws3.application_load_balancer;fillColor=#F58536;gradientColor=none;" parent="16" vertex="1">
                    <mxGeometry x="400" y="602" width="69" height="72" as="geometry"/>
                </mxCell>
                <mxCell id="35" value="" style="outlineConnect=0;dashed=0;verticalLabelPosition=bottom;verticalAlign=top;align=center;html=1;shape=mxgraph.aws3.application_load_balancer;fillColor=#F58536;gradientColor=none;" parent="16" vertex="1">
                    <mxGeometry x="560" y="190" width="69" height="72" as="geometry"/>
                </mxCell>
                <mxCell id="39" value="VPC&amp;nbsp;&lt;br&gt;Endpoint" style="text;html=1;strokeColor=none;fillColor=none;align=center;verticalAlign=middle;whiteSpace=wrap;rounded=0;" parent="16" vertex="1">
                    <mxGeometry x="1080" y="560" width="60" height="30" as="geometry"/>
                </mxCell>
                <mxCell id="45" value="" style="outlineConnect=0;dashed=0;verticalLabelPosition=bottom;verticalAlign=top;align=center;html=1;shape=mxgraph.aws3.s3;fillColor=#E05243;gradientColor=none;strokeColor=#FF9933;" parent="16" vertex="1">
                    <mxGeometry x="1247" y="683.5" width="76.5" height="93" as="geometry"/>
                </mxCell>
                <mxCell id="46" value="S3 Storage" style="text;html=1;strokeColor=none;fillColor=none;align=center;verticalAlign=middle;whiteSpace=wrap;rounded=0;" parent="16" vertex="1">
                    <mxGeometry x="1258" y="790" width="60" height="30" as="geometry"/>
                </mxCell>
                <mxCell id="48" value="" style="outlineConnect=0;dashed=0;verticalLabelPosition=bottom;verticalAlign=top;align=center;html=1;shape=mxgraph.aws3.dynamo_db;fillColor=#2E73B8;gradientColor=none;strokeColor=#FF9933;" parent="16" vertex="1">
                    <mxGeometry x="1258" y="349" width="72" height="81" as="geometry"/>
                </mxCell>
                <mxCell id="49" value="DynamoDB" style="text;html=1;strokeColor=none;fillColor=none;align=center;verticalAlign=middle;whiteSpace=wrap;rounded=0;" parent="16" vertex="1">
                    <mxGeometry x="1263.5" y="430" width="60" height="30" as="geometry"/>
                </mxCell>
                <mxCell id="50" value="" style="endArrow=none;html=1;rounded=0;strokeWidth=2;entryX=0;entryY=0.5;entryDx=0;entryDy=0;entryPerimeter=0;exitX=0.855;exitY=0.145;exitDx=0;exitDy=0;exitPerimeter=0;" parent="16" source="32" target="48" edge="1">
                    <mxGeometry width="50" height="50" relative="1" as="geometry">
                        <mxPoint x="1150" y="580" as="sourcePoint"/>
                        <mxPoint x="1200" y="530" as="targetPoint"/>
                        <Array as="points">
                            <mxPoint x="1210" y="390"/>
                        </Array>
                    </mxGeometry>
                </mxCell>
                <mxCell id="51" value="" style="endArrow=none;html=1;rounded=0;strokeWidth=2;entryX=0.855;entryY=0.855;entryDx=0;entryDy=0;entryPerimeter=0;exitX=0;exitY=0.5;exitDx=0;exitDy=0;exitPerimeter=0;" parent="16" source="45" target="32" edge="1">
                    <mxGeometry width="50" height="50" relative="1" as="geometry">
                        <mxPoint x="1130" y="710" as="sourcePoint"/>
                        <mxPoint x="1180" y="660" as="targetPoint"/>
                        <Array as="points">
                            <mxPoint x="1209" y="730"/>
                        </Array>
                    </mxGeometry>
                </mxCell>
                <mxCell id="64" value="" style="endArrow=none;html=1;rounded=0;fontSize=10;strokeWidth=2;entryX=0.5;entryY=1;entryDx=0;entryDy=0;entryPerimeter=0;" parent="16" source="27" target="35" edge="1">
                    <mxGeometry width="50" height="50" relative="1" as="geometry">
                        <mxPoint x="540" y="520" as="sourcePoint"/>
                        <mxPoint x="595" y="270" as="targetPoint"/>
                    </mxGeometry>
                </mxCell>
                <mxCell id="66" value="" style="endArrow=none;html=1;rounded=0;fontSize=10;strokeWidth=2;entryX=0.5;entryY=1;entryDx=0;entryDy=0;entryPerimeter=0;" parent="16" source="28" target="34" edge="1">
                    <mxGeometry width="50" height="50" relative="1" as="geometry">
                        <mxPoint x="600" y="870" as="sourcePoint"/>
                        <mxPoint x="650" y="820" as="targetPoint"/>
                    </mxGeometry>
                </mxCell>
                <mxCell id="68" value="Network&lt;br&gt;Load&lt;br&gt;Balancer&lt;br&gt;(Int)" style="text;html=1;strokeColor=none;fillColor=none;align=center;verticalAlign=middle;whiteSpace=wrap;rounded=0;fontSize=10;" parent="16" vertex="1">
                    <mxGeometry x="529" y="190" width="21" height="30" as="geometry"/>
                </mxCell>
                <mxCell id="69" value="Network&lt;br&gt;Load&lt;br&gt;Balancer&lt;br&gt;(ext)" style="text;html=1;strokeColor=none;fillColor=none;align=center;verticalAlign=middle;whiteSpace=wrap;rounded=0;fontSize=10;" parent="16" vertex="1">
                    <mxGeometry x="460" y="623" width="60" height="30" as="geometry"/>
                </mxCell>
                <mxCell id="70" value="Internet&lt;br style=&quot;font-size: 12px;&quot;&gt;Gateway" style="text;html=1;strokeColor=none;fillColor=none;align=center;verticalAlign=middle;whiteSpace=wrap;rounded=0;fontSize=12;" parent="16" vertex="1">
                    <mxGeometry x="210" y="810" width="60" height="30" as="geometry"/>
                </mxCell>
                <mxCell id="73" value="OpenShift&lt;br&gt;Console" style="text;html=1;strokeColor=none;fillColor=none;align=center;verticalAlign=middle;whiteSpace=wrap;rounded=0;fontSize=10;" parent="16" vertex="1">
                    <mxGeometry x="370" y="750" width="60" height="30" as="geometry"/>
                </mxCell>
                <mxCell id="74" value="Workloads" style="text;html=1;strokeColor=none;fillColor=none;align=center;verticalAlign=middle;whiteSpace=wrap;rounded=0;fontSize=10;" parent="16" vertex="1">
                    <mxGeometry x="754" y="765" width="60" height="30" as="geometry"/>
                </mxCell>
                <mxCell id="87" value="" style="dashed=0;html=1;shape=mxgraph.aws3.permissions;fillColor=#D9A741;gradientColor=none;dashed=0;" parent="16" vertex="1">
                    <mxGeometry x="669" y="320" width="30" height="35" as="geometry"/>
                </mxCell>
                <mxCell id="88" value="Private Subnet 2" style="text;html=1;strokeColor=none;fillColor=none;align=center;verticalAlign=middle;whiteSpace=wrap;rounded=0;" parent="16" vertex="1">
                    <mxGeometry x="730" y="310" width="100" height="30" as="geometry"/>
                </mxCell>
                <mxCell id="90" value="" style="dashed=0;html=1;shape=mxgraph.aws3.permissions;fillColor=#D9A741;gradientColor=none;dashed=0;" parent="16" vertex="1">
                    <mxGeometry x="937" y="320" width="30" height="35" as="geometry"/>
                </mxCell>
                <mxCell id="91" value="Private Subnet 3" style="text;html=1;strokeColor=none;fillColor=none;align=center;verticalAlign=middle;whiteSpace=wrap;rounded=0;" parent="16" vertex="1">
                    <mxGeometry x="967" y="310" width="100" height="30" as="geometry"/>
                </mxCell>
                <mxCell id="102" value="" style="dashed=0;html=1;shape=mxgraph.aws3.permissions;fillColor=#D9A741;gradientColor=none;dashed=0;" parent="16" vertex="1">
                    <mxGeometry x="664" y="712" width="30" height="35" as="geometry"/>
                </mxCell>
                <mxCell id="103" value="Public Subnet 2" style="text;html=1;strokeColor=none;fillColor=none;align=center;verticalAlign=middle;whiteSpace=wrap;rounded=0;" parent="16" vertex="1">
                    <mxGeometry x="750" y="800" width="100" height="30" as="geometry"/>
                </mxCell>
                <mxCell id="106" value="" style="dashed=0;html=1;shape=mxgraph.aws3.permissions;fillColor=#D9A741;gradientColor=none;dashed=0;" parent="16" vertex="1">
                    <mxGeometry x="935.5" y="712" width="30" height="35" as="geometry"/>
                </mxCell>
                <mxCell id="107" value="Public Subnet 3" style="text;html=1;strokeColor=none;fillColor=none;align=center;verticalAlign=middle;whiteSpace=wrap;rounded=0;" parent="16" vertex="1">
                    <mxGeometry x="1020" y="800" width="100" height="30" as="geometry"/>
                </mxCell>
                <mxCell id="108" value="" style="line;strokeWidth=4;html=1;perimeter=backbonePerimeter;points=[];outlineConnect=0;" parent="16" vertex="1">
                    <mxGeometry x="684" y="790" width="160" height="10" as="geometry"/>
                </mxCell>
                <mxCell id="109" value="" style="line;strokeWidth=4;html=1;perimeter=backbonePerimeter;points=[];outlineConnect=0;" parent="16" vertex="1">
                    <mxGeometry x="960" y="790" width="160" height="10" as="geometry"/>
                </mxCell>
                <mxCell id="110" value="" style="line;strokeWidth=4;html=1;perimeter=backbonePerimeter;points=[];outlineConnect=0;" parent="16" vertex="1">
                    <mxGeometry x="684" y="430" width="160" height="10" as="geometry"/>
                </mxCell>
                <mxCell id="111" value="" style="line;strokeWidth=4;html=1;perimeter=backbonePerimeter;points=[];outlineConnect=0;" parent="16" vertex="1">
                    <mxGeometry x="951" y="430" width="160" height="10" as="geometry"/>
                </mxCell>
                <mxCell id="124" value="" style="endArrow=none;html=1;strokeWidth=2;entryX=0.5;entryY=1;entryDx=0;entryDy=0;entryPerimeter=0;rounded=0;" parent="16" source="108" target="136" edge="1">
                    <mxGeometry width="50" height="50" relative="1" as="geometry">
                        <mxPoint x="650" y="890" as="sourcePoint"/>
                        <mxPoint x="825.5" y="766" as="targetPoint"/>
                        <Array as="points">
                            <mxPoint x="820" y="720"/>
                            <mxPoint x="1093" y="720"/>
                        </Array>
                    </mxGeometry>
                </mxCell>
                <mxCell id="125" value="" style="endArrow=none;html=1;strokeWidth=2;exitX=1;exitY=0.5;exitDx=0;exitDy=0;exitPerimeter=0;rounded=0;" parent="16" source="24" target="28" edge="1">
                    <mxGeometry width="50" height="50" relative="1" as="geometry">
                        <mxPoint x="380" y="900" as="sourcePoint"/>
                        <mxPoint x="430" y="850" as="targetPoint"/>
                        <Array as="points">
                            <mxPoint x="410" y="846"/>
                        </Array>
                    </mxGeometry>
                </mxCell>
                <mxCell id="126" value="" style="endArrow=none;html=1;rounded=0;strokeWidth=2;exitX=1;exitY=0.5;exitDx=0;exitDy=0;exitPerimeter=0;" parent="16" source="24" target="108" edge="1">
                    <mxGeometry width="50" height="50" relative="1" as="geometry">
                        <mxPoint x="470" y="910" as="sourcePoint"/>
                        <mxPoint x="520" y="860" as="targetPoint"/>
                        <Array as="points">
                            <mxPoint x="710" y="846"/>
                        </Array>
                    </mxGeometry>
                </mxCell>
                <mxCell id="127" value="" style="endArrow=none;html=1;rounded=0;strokeWidth=2;" parent="16" source="24" target="109" edge="1">
                    <mxGeometry width="50" height="50" relative="1" as="geometry">
                        <mxPoint x="810" y="890" as="sourcePoint"/>
                        <mxPoint x="860" y="840" as="targetPoint"/>
                        <Array as="points">
                            <mxPoint x="980" y="846"/>
                        </Array>
                    </mxGeometry>
                </mxCell>
                <mxCell id="128" value="" style="endArrow=none;html=1;rounded=0;strokeWidth=2;exitX=0.5;exitY=1;exitDx=0;exitDy=0;exitPerimeter=0;" parent="16" source="179" target="28" edge="1">
                    <mxGeometry width="50" height="50" relative="1" as="geometry">
                        <mxPoint x="354" y="313.5" as="sourcePoint"/>
                        <mxPoint x="450" y="430" as="targetPoint"/>
                        <Array as="points"/>
                    </mxGeometry>
                </mxCell>
                <mxCell id="135" value="Classic&lt;br&gt;Load&lt;br&gt;Balancer" style="text;html=1;strokeColor=none;fillColor=none;align=center;verticalAlign=middle;whiteSpace=wrap;rounded=0;fontSize=10;" parent="16" vertex="1">
                    <mxGeometry x="1010" y="653.5" width="60" height="30" as="geometry"/>
                </mxCell>
                <mxCell id="136" value="" style="outlineConnect=0;dashed=0;verticalLabelPosition=bottom;verticalAlign=top;align=center;html=1;shape=mxgraph.aws3.classic_load_balancer;fillColor=#F58536;gradientColor=none;" parent="16" vertex="1">
                    <mxGeometry x="1058" y="632" width="69" height="72" as="geometry"/>
                </mxCell>
                <mxCell id="137" value="" style="endArrow=classic;dashed=1;html=1;rounded=0;strokeWidth=2;entryX=0.5;entryY=1;entryDx=0;entryDy=0;exitX=0.5;exitY=0;exitDx=0;exitDy=0;exitPerimeter=0;endFill=1;" parent="16" source="34" target="95" edge="1">
                    <mxGeometry width="50" height="50" relative="1" as="geometry">
                        <mxPoint x="350" y="620" as="sourcePoint"/>
                        <mxPoint x="400" y="570" as="targetPoint"/>
                        <Array as="points">
                            <mxPoint x="435" y="580"/>
                            <mxPoint x="515" y="580"/>
                        </Array>
                    </mxGeometry>
                </mxCell>
                <mxCell id="138" value="" style="endArrow=classic;dashed=1;html=1;rounded=0;strokeWidth=2;entryX=0.5;entryY=1;entryDx=0;entryDy=0;exitX=0.5;exitY=0;exitDx=0;exitDy=0;exitPerimeter=0;endFill=1;" parent="16" source="34" target="96" edge="1">
                    <mxGeometry width="50" height="50" relative="1" as="geometry">
                        <mxPoint x="230" y="620" as="sourcePoint"/>
                        <mxPoint x="280" y="570" as="targetPoint"/>
                        <Array as="points">
                            <mxPoint x="435" y="580"/>
                            <mxPoint x="733" y="580"/>
                        </Array>
                    </mxGeometry>
                </mxCell>
                <mxCell id="139" value="" style="endArrow=classic;dashed=1;html=1;rounded=0;strokeWidth=2;entryX=0.5;entryY=1;entryDx=0;entryDy=0;exitX=0.5;exitY=0;exitDx=0;exitDy=0;exitPerimeter=0;endFill=1;" parent="16" source="34" target="100" edge="1">
                    <mxGeometry width="50" height="50" relative="1" as="geometry">
                        <mxPoint x="439" y="704" as="sourcePoint"/>
                        <mxPoint x="743" y="520" as="targetPoint"/>
                        <Array as="points">
                            <mxPoint x="435" y="580"/>
                            <mxPoint x="985" y="580"/>
                        </Array>
                    </mxGeometry>
                </mxCell>
                <mxCell id="142" value="" style="endArrow=none;dashed=1;html=1;rounded=0;strokeWidth=2;exitX=0.5;exitY=0;exitDx=0;exitDy=0;exitPerimeter=0;" parent="16" edge="1">
                    <mxGeometry width="50" height="50" relative="1" as="geometry">
                        <mxPoint x="971.25" y="693" as="sourcePoint"/>
                        <mxPoint x="970.75" y="580" as="targetPoint"/>
                    </mxGeometry>
                </mxCell>
                <mxCell id="143" value="" style="endArrow=classic;dashed=1;html=1;dashPattern=1 3;strokeWidth=2;rounded=0;entryX=0.5;entryY=1;entryDx=0;entryDy=0;exitX=0.5;exitY=0;exitDx=0;exitDy=0;exitPerimeter=0;endFill=1;" parent="16" source="136" target="113" edge="1">
                    <mxGeometry width="50" height="50" relative="1" as="geometry">
                        <mxPoint x="549" y="640" as="sourcePoint"/>
                        <mxPoint x="310" y="580" as="targetPoint"/>
                        <Array as="points">
                            <mxPoint x="1093" y="610"/>
                            <mxPoint x="575" y="610"/>
                        </Array>
                    </mxGeometry>
                </mxCell>
                <mxCell id="147" value="" style="endArrow=classic;dashed=1;html=1;dashPattern=1 3;strokeWidth=2;rounded=0;entryX=0.5;entryY=1;entryDx=0;entryDy=0;exitX=0.5;exitY=0;exitDx=0;exitDy=0;exitPerimeter=0;endFill=1;" parent="16" source="136" target="99" edge="1">
                    <mxGeometry width="50" height="50" relative="1" as="geometry">
                        <mxPoint x="1070" y="670" as="sourcePoint"/>
                        <mxPoint x="1120" y="620" as="targetPoint"/>
                        <Array as="points">
                            <mxPoint x="1093" y="610"/>
                            <mxPoint x="1065" y="610"/>
                        </Array>
                    </mxGeometry>
                </mxCell>
                <mxCell id="148" value="" style="endArrow=none;html=1;rounded=0;strokeWidth=2;entryX=0.5;entryY=1;entryDx=0;entryDy=0;entryPerimeter=0;jumpStyle=arc;" parent="16" source="28" target="136" edge="1">
                    <mxGeometry width="50" height="50" relative="1" as="geometry">
                        <mxPoint x="220" y="770" as="sourcePoint"/>
                        <mxPoint x="549" y="712" as="targetPoint"/>
                        <Array as="points">
                            <mxPoint x="560" y="720"/>
                            <mxPoint x="1093" y="720"/>
                        </Array>
                    </mxGeometry>
                </mxCell>
                <mxCell id="149" value="" style="endArrow=none;html=1;rounded=0;strokeWidth=2;entryX=0.5;entryY=1;entryDx=0;entryDy=0;entryPerimeter=0;jumpStyle=arc;" parent="16" source="108" target="34" edge="1">
                    <mxGeometry width="50" height="50" relative="1" as="geometry">
                        <mxPoint x="610" y="940" as="sourcePoint"/>
                        <mxPoint x="704.25" y="765" as="targetPoint"/>
                        <Array as="points">
                            <mxPoint x="700" y="700"/>
                            <mxPoint x="435" y="700"/>
                        </Array>
                    </mxGeometry>
                </mxCell>
                <mxCell id="150" value="" style="endArrow=none;html=1;rounded=0;strokeWidth=2;entryX=0.5;entryY=1;entryDx=0;entryDy=0;entryPerimeter=0;jumpStyle=arc;" parent="16" source="109" target="34" edge="1">
                    <mxGeometry width="50" height="50" relative="1" as="geometry">
                        <mxPoint x="940" y="830" as="sourcePoint"/>
                        <mxPoint x="971.25" y="765" as="targetPoint"/>
                        <Array as="points">
                            <mxPoint x="980" y="700"/>
                            <mxPoint x="435" y="700"/>
                        </Array>
                    </mxGeometry>
                </mxCell>
                <mxCell id="151" value="" style="endArrow=none;html=1;rounded=0;strokeWidth=2;entryX=0.5;entryY=1;entryDx=0;entryDy=0;entryPerimeter=0;" parent="16" source="109" target="136" edge="1">
                    <mxGeometry width="50" height="50" relative="1" as="geometry">
                        <mxPoint x="1020" y="810" as="sourcePoint"/>
                        <mxPoint x="1070" y="760" as="targetPoint"/>
                    </mxGeometry>
                </mxCell>
                <mxCell id="152" value="OpenShift&lt;br&gt;Console" style="text;html=1;strokeColor=none;fillColor=none;align=center;verticalAlign=middle;whiteSpace=wrap;rounded=0;fontSize=10;" parent="16" vertex="1">
                    <mxGeometry x="639" y="760" width="60" height="30" as="geometry"/>
                </mxCell>
                <mxCell id="153" value="OpenShift&lt;br&gt;Console" style="text;html=1;strokeColor=none;fillColor=none;align=center;verticalAlign=middle;whiteSpace=wrap;rounded=0;fontSize=10;" parent="16" vertex="1">
                    <mxGeometry x="900" y="765" width="60" height="30" as="geometry"/>
                </mxCell>
                <mxCell id="154" value="Workloads" style="text;html=1;strokeColor=none;fillColor=none;align=center;verticalAlign=middle;whiteSpace=wrap;rounded=0;fontSize=10;" parent="16" vertex="1">
                    <mxGeometry x="1030" y="760" width="60" height="30" as="geometry"/>
                </mxCell>
                <mxCell id="155" value="Workloads" style="text;html=1;strokeColor=none;fillColor=none;align=center;verticalAlign=middle;whiteSpace=wrap;rounded=0;fontSize=10;" parent="16" vertex="1">
                    <mxGeometry x="490" y="765" width="60" height="30" as="geometry"/>
                </mxCell>
                <mxCell id="167" value="" style="endArrow=none;html=1;rounded=0;fontSize=12;fontColor=#006600;strokeWidth=2;entryX=0.5;entryY=1;entryDx=0;entryDy=0;entryPerimeter=0;jumpStyle=arc;" parent="16" source="110" target="35" edge="1">
                    <mxGeometry width="50" height="50" relative="1" as="geometry">
                        <mxPoint x="660" y="490" as="sourcePoint"/>
                        <mxPoint x="743.5" y="421.5" as="targetPoint"/>
                        <Array as="points">
                            <mxPoint x="710" y="300"/>
                            <mxPoint x="595" y="300"/>
                        </Array>
                    </mxGeometry>
                </mxCell>
                <mxCell id="168" value="" style="endArrow=none;html=1;rounded=0;fontSize=12;fontColor=#006600;strokeWidth=2;entryX=0.5;entryY=1;entryDx=0;entryDy=0;entryPerimeter=0;jumpStyle=arc;" parent="16" source="111" target="35" edge="1">
                    <mxGeometry width="50" height="50" relative="1" as="geometry">
                        <mxPoint x="728.5" y="443" as="sourcePoint"/>
                        <mxPoint x="1010.5" y="421.5" as="targetPoint"/>
                        <Array as="points">
                            <mxPoint x="1040" y="300"/>
                            <mxPoint x="595" y="300"/>
                        </Array>
                    </mxGeometry>
                </mxCell>
                <mxCell id="179" value="" style="outlineConnect=0;dashed=0;verticalLabelPosition=bottom;verticalAlign=top;align=center;html=1;shape=mxgraph.aws3.vpc_nat_gateway;fillColor=#F58534;gradientColor=none;" parent="16" vertex="1">
                    <mxGeometry x="510" y="880" width="69" height="72" as="geometry"/>
                </mxCell>
                <mxCell id="180" value="" style="outlineConnect=0;dashed=0;verticalLabelPosition=bottom;verticalAlign=top;align=center;html=1;shape=mxgraph.aws3.vpc_nat_gateway;fillColor=#F58534;gradientColor=none;" parent="16" vertex="1">
                    <mxGeometry x="700" y="880" width="69" height="72" as="geometry"/>
                </mxCell>
                <mxCell id="181" value="" style="outlineConnect=0;dashed=0;verticalLabelPosition=bottom;verticalAlign=top;align=center;html=1;shape=mxgraph.aws3.vpc_nat_gateway;fillColor=#F58534;gradientColor=none;" parent="16" vertex="1">
                    <mxGeometry x="970" y="880" width="69" height="72" as="geometry"/>
                </mxCell>
                <mxCell id="184" value="" style="endArrow=classic;html=1;rounded=0;entryX=0;entryY=0.5;entryDx=0;entryDy=0;entryPerimeter=0;exitX=0.5;exitY=1;exitDx=0;exitDy=0;exitPerimeter=0;strokeWidth=2;" parent="16" source="8" target="24" edge="1">
                    <mxGeometry width="50" height="50" relative="1" as="geometry">
                        <mxPoint x="160" y="930" as="sourcePoint"/>
                        <mxPoint x="210" y="880" as="targetPoint"/>
                        <Array as="points">
                            <mxPoint x="190" y="846"/>
                        </Array>
                    </mxGeometry>
                </mxCell>
                <mxCell id="185" value="" style="endArrow=classic;dashed=1;html=1;dashPattern=1 3;strokeWidth=2;rounded=0;entryX=0.5;entryY=1;entryDx=0;entryDy=0;exitX=0.5;exitY=0;exitDx=0;exitDy=0;exitPerimeter=0;endFill=1;" parent="16" source="136" target="98" edge="1">
                    <mxGeometry width="50" height="50" relative="1" as="geometry">
                        <mxPoint x="1102.5" y="642" as="sourcePoint"/>
                        <mxPoint x="585" y="520" as="targetPoint"/>
                        <Array as="points">
                            <mxPoint x="1090" y="610"/>
                            <mxPoint x="815" y="610"/>
                        </Array>
                    </mxGeometry>
                </mxCell>
                <mxCell id="187" value="" style="endArrow=none;html=1;rounded=0;strokeWidth=2;jumpStyle=arc;exitX=0.5;exitY=1;exitDx=0;exitDy=0;exitPerimeter=0;entryX=0.5;entryY=1;entryDx=0;entryDy=0;entryPerimeter=0;" parent="16" source="8" target="181" edge="1">
                    <mxGeometry width="50" height="50" relative="1" as="geometry">
                        <mxPoint x="800" y="640" as="sourcePoint"/>
                        <mxPoint x="1005" y="950" as="targetPoint"/>
                        <Array as="points">
                            <mxPoint x="190" y="980"/>
                            <mxPoint x="1005" y="980"/>
                        </Array>
                    </mxGeometry>
                </mxCell>
                <mxCell id="188" value="" style="endArrow=none;html=1;rounded=0;strokeWidth=2;jumpStyle=arc;exitX=0.5;exitY=1;exitDx=0;exitDy=0;exitPerimeter=0;entryX=0.5;entryY=1;entryDx=0;entryDy=0;entryPerimeter=0;startArrow=none;" parent="16" source="8" target="180" edge="1">
                    <mxGeometry width="50" height="50" relative="1" as="geometry">
                        <mxPoint x="450" y="110" as="sourcePoint"/>
                        <mxPoint x="715" y="950" as="targetPoint"/>
                        <Array as="points">
                            <mxPoint x="190" y="980"/>
                            <mxPoint x="735" y="980"/>
                        </Array>
                    </mxGeometry>
                </mxCell>
                <mxCell id="193" value="Elastic IP (x3)" style="text;html=1;strokeColor=none;fillColor=none;align=center;verticalAlign=middle;whiteSpace=wrap;rounded=0;" parent="16" vertex="1">
                    <mxGeometry x="310" y="930" width="60" height="30" as="geometry"/>
                </mxCell>
                <mxCell id="195" value="" style="sketch=0;points=[[0,0,0],[0.25,0,0],[0.5,0,0],[0.75,0,0],[1,0,0],[0,1,0],[0.25,1,0],[0.5,1,0],[0.75,1,0],[1,1,0],[0,0.25,0],[0,0.5,0],[0,0.75,0],[1,0.25,0],[1,0.5,0],[1,0.75,0]];outlineConnect=0;fontColor=#232F3E;gradientColor=#945DF2;gradientDirection=north;fillColor=#5A30B5;strokeColor=#ffffff;dashed=0;verticalLabelPosition=bottom;verticalAlign=top;align=center;html=1;fontSize=12;fontStyle=0;aspect=fixed;shape=mxgraph.aws4.resourceIcon;resIcon=mxgraph.aws4.route_53;" parent="16" vertex="1">
                    <mxGeometry x="1247" y="535.5" width="78" height="78" as="geometry"/>
                </mxCell>
                <mxCell id="196" value="Route 53" style="text;html=1;strokeColor=none;fillColor=none;align=center;verticalAlign=middle;whiteSpace=wrap;rounded=0;" parent="16" vertex="1">
                    <mxGeometry x="1258" y="623" width="60" height="30" as="geometry"/>
                </mxCell>
                <mxCell id="197" value="" style="endArrow=none;html=1;rounded=0;strokeWidth=2;jumpStyle=arc;" parent="16" source="32" edge="1">
                    <mxGeometry width="50" height="50" relative="1" as="geometry">
                        <mxPoint x="1440" y="620" as="sourcePoint"/>
                        <mxPoint x="1250" y="578" as="targetPoint"/>
                    </mxGeometry>
                </mxCell>
                <mxCell id="198" value="Ports 80, 443" style="text;html=1;strokeColor=none;fillColor=none;align=center;verticalAlign=middle;whiteSpace=wrap;rounded=0;" parent="16" vertex="1">
                    <mxGeometry x="1100" y="700" width="60" height="30" as="geometry"/>
                </mxCell>
                <mxCell id="199" value="Port 6443" style="text;html=1;strokeColor=none;fillColor=none;align=center;verticalAlign=middle;whiteSpace=wrap;rounded=0;" parent="16" vertex="1">
                    <mxGeometry x="360" y="674" width="60" height="30" as="geometry"/>
                </mxCell>
                <mxCell id="200" value="Ports 31280,&lt;br&gt;31558" style="text;html=1;strokeColor=none;fillColor=none;align=center;verticalAlign=middle;whiteSpace=wrap;rounded=0;" parent="16" vertex="1">
                    <mxGeometry x="1010" y="555" width="60" height="30" as="geometry"/>
                </mxCell>
                <mxCell id="201" value="Port 6443" style="text;html=1;strokeColor=none;fillColor=none;align=center;verticalAlign=middle;whiteSpace=wrap;rounded=0;" parent="16" vertex="1">
                    <mxGeometry x="405" y="555" width="60" height="30" as="geometry"/>
                </mxCell>
                <mxCell id="202" value="Port 6443,&lt;br&gt;22643" style="text;html=1;strokeColor=none;fillColor=none;align=center;verticalAlign=middle;whiteSpace=wrap;rounded=0;" parent="16" vertex="1">
                    <mxGeometry x="500" y="232" width="60" height="30" as="geometry"/>
                </mxCell>
                <mxCell id="203" value="NAT Gateway" style="text;html=1;strokeColor=none;fillColor=none;align=center;verticalAlign=middle;whiteSpace=wrap;rounded=0;" parent="16" vertex="1">
                    <mxGeometry x="640" y="900" width="60" height="30" as="geometry"/>
                </mxCell>
                <mxCell id="204" value="NAT Gateway" style="text;html=1;strokeColor=none;fillColor=none;align=center;verticalAlign=middle;whiteSpace=wrap;rounded=0;" parent="16" vertex="1">
                    <mxGeometry x="910" y="900" width="60" height="30" as="geometry"/>
                </mxCell>
                <mxCell id="192" value="" style="outlineConnect=0;dashed=0;verticalLabelPosition=bottom;verticalAlign=top;align=center;html=1;shape=mxgraph.aws3.elastic_ip;fillColor=#F58534;gradientColor=none;" parent="16" vertex="1">
                    <mxGeometry x="287.75" y="970" width="76.5" height="21" as="geometry"/>
                </mxCell>
                <object label="OpenShift" id="84">
                    <mxCell style="" parent="0"/>
                </object>
                <mxCell id="85" value="" style="rounded=1;whiteSpace=wrap;html=1;fontSize=10;strokeColor=#FF0000;fillColor=none;dashed=1;dashPattern=1 2;arcSize=7;strokeWidth=2;" parent="84" vertex="1">
                    <mxGeometry x="470" y="350" width="660" height="180" as="geometry"/>
                </mxCell>
                <mxCell id="93" value="" style="sketch=0;aspect=fixed;html=1;points=[];align=center;image;fontSize=12;image=img/lib/mscae/OpenShift.svg;strokeColor=#FF0000;" parent="84" vertex="1">
                    <mxGeometry x="1100" y="318" width="50" height="46" as="geometry"/>
                </mxCell>
                <mxCell id="94" value="Bootstrap" style="whiteSpace=wrap;html=1;aspect=fixed;strokeColor=#FF0000;fontSize=10;" parent="84" vertex="1">
                    <mxGeometry x="473" y="364" width="50" height="50" as="geometry"/>
                </mxCell>
                <mxCell id="95" value="Master0" style="whiteSpace=wrap;html=1;aspect=fixed;strokeColor=#FF0000;fontSize=10;" parent="84" vertex="1">
                    <mxGeometry x="490" y="460" width="50" height="50" as="geometry"/>
                </mxCell>
                <mxCell id="96" value="Master1" style="whiteSpace=wrap;html=1;aspect=fixed;strokeColor=#FF0000;fontSize=10;" parent="84" vertex="1">
                    <mxGeometry x="708" y="460" width="50" height="50" as="geometry"/>
                </mxCell>
                <mxCell id="97" value="Worker1" style="whiteSpace=wrap;html=1;aspect=fixed;strokeColor=#FF0000;fontSize=10;" parent="84" vertex="1">
                    <mxGeometry x="810" y="364" width="50" height="50" as="geometry"/>
                </mxCell>
                <mxCell id="98" value="Infra1" style="whiteSpace=wrap;html=1;aspect=fixed;strokeColor=#FF0000;fontSize=10;" parent="84" vertex="1">
                    <mxGeometry x="790" y="460" width="50" height="50" as="geometry"/>
                </mxCell>
                <mxCell id="99" value="Infra2" style="whiteSpace=wrap;html=1;aspect=fixed;strokeColor=#FF0000;fontSize=10;" parent="84" vertex="1">
                    <mxGeometry x="1040" y="460" width="50" height="50" as="geometry"/>
                </mxCell>
                <mxCell id="100" value="Master2" style="whiteSpace=wrap;html=1;aspect=fixed;strokeColor=#FF0000;fontSize=10;" parent="84" vertex="1">
                    <mxGeometry x="960" y="460" width="50" height="50" as="geometry"/>
                </mxCell>
                <mxCell id="101" value="Worker2" style="whiteSpace=wrap;html=1;aspect=fixed;strokeColor=#FF0000;fontSize=10;" parent="84" vertex="1">
                    <mxGeometry x="1060" y="364" width="50" height="50" as="geometry"/>
                </mxCell>
                <mxCell id="112" value="Worker0" style="whiteSpace=wrap;html=1;aspect=fixed;strokeColor=#FF0000;fontSize=10;" parent="84" vertex="1">
                    <mxGeometry x="533" y="364" width="50" height="50" as="geometry"/>
                </mxCell>
                <mxCell id="113" value="Infra1" style="whiteSpace=wrap;html=1;aspect=fixed;strokeColor=#FF0000;fontSize=10;" parent="84" vertex="1">
                    <mxGeometry x="550" y="460" width="50" height="50" as="geometry"/>
                </mxCell>
                <mxCell id="114" value="" style="endArrow=none;html=1;strokeWidth=2;exitX=0.5;exitY=0;exitDx=0;exitDy=0;" parent="84" source="95" target="27" edge="1">
                    <mxGeometry width="50" height="50" relative="1" as="geometry">
                        <mxPoint x="570" y="220" as="sourcePoint"/>
                        <mxPoint x="515" y="450" as="targetPoint"/>
                    </mxGeometry>
                </mxCell>
                <mxCell id="115" value="" style="endArrow=none;html=1;strokeWidth=2;entryX=0.5;entryY=1;entryDx=0;entryDy=0;" parent="84" source="27" target="94" edge="1">
                    <mxGeometry width="50" height="50" relative="1" as="geometry">
                        <mxPoint x="515" y="440" as="sourcePoint"/>
                        <mxPoint x="525" y="446" as="targetPoint"/>
                    </mxGeometry>
                </mxCell>
                <mxCell id="116" value="" style="endArrow=none;html=1;strokeWidth=2;entryX=0.5;entryY=1;entryDx=0;entryDy=0;" parent="84" source="27" target="112" edge="1">
                    <mxGeometry width="50" height="50" relative="1" as="geometry">
                        <mxPoint x="525" y="450" as="sourcePoint"/>
                        <mxPoint x="525" y="424" as="targetPoint"/>
                    </mxGeometry>
                </mxCell>
                <mxCell id="117" value="" style="endArrow=none;html=1;strokeWidth=2;exitX=0.5;exitY=0;exitDx=0;exitDy=0;" parent="84" source="113" target="27" edge="1">
                    <mxGeometry width="50" height="50" relative="1" as="geometry">
                        <mxPoint x="585" y="443" as="sourcePoint"/>
                        <mxPoint x="585" y="424" as="targetPoint"/>
                    </mxGeometry>
                </mxCell>
                <mxCell id="118" value="" style="endArrow=none;html=1;strokeWidth=2;exitX=0.5;exitY=0;exitDx=0;exitDy=0;" parent="84" source="96" target="110" edge="1">
                    <mxGeometry width="50" height="50" relative="1" as="geometry">
                        <mxPoint x="525" y="470" as="sourcePoint"/>
                        <mxPoint x="525" y="446" as="targetPoint"/>
                    </mxGeometry>
                </mxCell>
                <mxCell id="119" value="" style="endArrow=none;html=1;strokeWidth=2;exitX=0.5;exitY=0;exitDx=0;exitDy=0;" parent="84" source="98" target="110" edge="1">
                    <mxGeometry width="50" height="50" relative="1" as="geometry">
                        <mxPoint x="743" y="470" as="sourcePoint"/>
                        <mxPoint x="743" y="446" as="targetPoint"/>
                    </mxGeometry>
                </mxCell>
                <mxCell id="120" value="" style="endArrow=none;html=1;strokeWidth=2;entryX=0.5;entryY=1;entryDx=0;entryDy=0;" parent="84" source="110" target="97" edge="1">
                    <mxGeometry width="50" height="50" relative="1" as="geometry">
                        <mxPoint x="825" y="470" as="sourcePoint"/>
                        <mxPoint x="825" y="446" as="targetPoint"/>
                    </mxGeometry>
                </mxCell>
                <mxCell id="121" value="" style="endArrow=none;html=1;strokeWidth=2;entryX=0.5;entryY=1;entryDx=0;entryDy=0;" parent="84" source="111" target="101" edge="1">
                    <mxGeometry width="50" height="50" relative="1" as="geometry">
                        <mxPoint x="785" y="443" as="sourcePoint"/>
                        <mxPoint x="785" y="424" as="targetPoint"/>
                    </mxGeometry>
                </mxCell>
                <mxCell id="122" value="" style="endArrow=none;html=1;strokeWidth=2;exitX=0.5;exitY=0;exitDx=0;exitDy=0;" parent="84" source="100" target="111" edge="1">
                    <mxGeometry width="50" height="50" relative="1" as="geometry">
                        <mxPoint x="1035" y="443" as="sourcePoint"/>
                        <mxPoint x="1035" y="424" as="targetPoint"/>
                    </mxGeometry>
                </mxCell>
                <mxCell id="123" value="" style="endArrow=none;html=1;strokeWidth=2;exitX=0.5;exitY=0;exitDx=0;exitDy=0;" parent="84" source="99" target="111" edge="1">
                    <mxGeometry width="50" height="50" relative="1" as="geometry">
                        <mxPoint x="995" y="470" as="sourcePoint"/>
                        <mxPoint x="995" y="446" as="targetPoint"/>
                    </mxGeometry>
                </mxCell>
            </root>
        </mxGraphModel>
    </diagram>
</mxfile>